<svg width="2588" height="1017" viewBox="0 0 2588 1017" xmlns="http://www.w3.org/2000/svg" xmlns:xlink="http://www.w3.org/1999/xlink"><title>Vector 2</title><desc>Created using Figma</desc><use xlink:href="#a" transform="translate(.66)" fill="#FFF"/><defs><path id="a" d="M622.338 494c123.441-21.112 211.798-25.499 324.033-107.906 122.349-89.836 113.409-260.623 259.509-333.916 193.03-96.843 433.11-51.114 548.16 73.293 115.05 124.408 214.85 302.145 343.98 334.303 69.62 17.338 126.23 27.585 184.43 32.087l161.89-.208c161 6.2 225 330.347-19 454.347s-766-202-1126-236c-360.002-34-608.002 226-928.002 294s-398-160-364-242 96-140 204-198c86.4-46.4 310-66 411-70z"/></defs></svg>