<svg width="1874" height="1704" viewBox="0 0 1874 1704" version="1.1" xmlns="http://www.w3.org/2000/svg" xmlns:xlink="http://www.w3.org/1999/xlink">
<title>slide-2</title>
<desc>Created using Figma</desc>
<g id="Canvas" transform="translate(-9005 1573)">
<g id="slide-2">
<use xlink:href="#path0_fill" transform="matrix(-0.320151 -0.947366 0.947366 -0.320151 9395.4 399.552)" fill="#FFFFFF"/>
</g>
</g>
<defs>
<path id="path0_fill" d="M 1649.21 1092.12C 1796.34 962.688 1843.86 801.433 1649.21 649.883C 1454.57 498.333 1561.84 325.342 1487.98 200.744C 1414.11 76.1469 1217.5 -91.3337 965.96 60.2162C 714.418 211.766 557.543 291.674 365.506 327.495C 90.4282 378.806 -101.629 1002.72 57.951 1104.67C 217.531 1206.62 400.963 1099.57 409.077 1322.76C 415.569 1501.32 380.816 1598.87 494.771 1711.33C 715.37 1929.04 892.932 1366.3 1095.76 1208.62C 1268.34 1074.44 1465.31 1253.92 1649.21 1092.12Z"/>
</defs>
</svg>
