<svg width="1126" height="1576" viewBox="0 0 1126 1576" version="1.1" xmlns="http://www.w3.org/2000/svg" xmlns:xlink="http://www.w3.org/1999/xlink">
<title>slide-0</title>
<desc>Created using Figma</desc>
<g id="Canvas" transform="translate(-6360 1225)">
<g id="slide-0">
<use xlink:href="#path0_fill" transform="translate(6360 -1224.01)" fill="#FFFFFF"/>
</g>
</g>
<defs>
<path id="path0_fill" d="M 1004.58 1030C 1143.29 907.965 1188.1 755.935 1004.58 613.055C 821.071 470.175 917.994 309.111 852.569 189.611C 787.144 70.1115 597.57 -85.7574 360.419 57.1226C 123.268 200.003 -0.000361727 341.115 -6.10348e-05 516.006C 0.00042725 800.006 164.143 794.291 248 962.006C 290 1046.01 240 1222.01 213.998 1286.01C 169.411 1395.75 149.196 1532.06 213.998 1560.01C 431.998 1654.01 379.203 1272.19 481.997 1168.01C 626.75 1021.3 831.197 1182.54 1004.58 1030Z"/>
</defs>
</svg>
