<svg width="2554" height="1017" viewBox="0 0 2554 1017" xmlns="http://www.w3.org/2000/svg" xmlns:xlink="http://www.w3.org/1999/xlink"><title>Vector 2</title><desc>Created using Figma</desc><use xlink:href="#a" transform="translate(.66)" fill="#FFF"/><defs><path id="a" d="M946.371 386.094C834.136 468.501 745.779 472.888 622.338 494c-101 4-324.6 23.6-411 70-108 58-170 116-204 198s44 310 364 242 568-328 928.002-294c360 34 972.95 419.53 1176 236 104-94 94.81-204 22-300-83.77-110.448-216-124-349.32-186.226-133.31-62.225-228.93-209.895-343.98-334.303-115.05-124.407-405.13-170.136-598.16-73.293-146.1 73.293-137.16 244.08-259.509 333.916z"/></defs></svg>