<svg width="1874" height="1704" viewBox="0 0 1874 1704" xmlns="http://www.w3.org/2000/svg" xmlns:xlink="http://www.w3.org/1999/xlink"><title>slide-2</title><desc>Created using Figma</desc><use xlink:href="#a" transform="rotate(-108.672 902.971 846.197)" fill="#FFF"/><defs><path id="a" d="M1649.21 1092.12c147.13-129.432 194.65-290.687 0-442.237-194.64-151.55-87.37-324.541-161.23-449.139C1414.11 76.147 1217.5-91.334 965.96 60.216c-251.542 151.55-408.417 231.458-600.454 267.279C90.428 378.806-101.629 1002.72 57.951 1104.67c159.58 101.95 343.012-5.1 351.126 218.09 6.492 178.56-28.261 276.11 85.694 388.57 220.599 217.71 398.161-345.03 600.989-502.71 172.58-134.18 369.55 45.3 553.45-116.5z"/></defs></svg>