<svg width="1766" height="1606" viewBox="0 0 1766 1606" xmlns="http://www.w3.org/2000/svg" xmlns:xlink="http://www.w3.org/1999/xlink"><title>Vector 3</title><desc>Created using Figma</desc><use xlink:href="#a" transform="rotate(-108.672 851.01 797.614)" fill="#FFF"/><defs><path id="a" d="M1554.86 1029.65c138.71-122.036 183.52-274.066 0-416.946-183.51-142.88-82.37-305.975-152.01-423.444-69.64-117.47-255-275.369-492.152-132.489-237.151 142.88-385.051 218.217-566.102 251.989-259.341 48.375-440.411 636.595-289.96 732.71 150.45 96.12 323.389-4.8 331.039 205.62 6.12 168.34-26.645 260.31 80.791 366.34 207.979 205.25 375.382-325.29 566.604-473.96 162.71-126.49 348.41 42.71 521.79-109.82z"/></defs></svg>