<?xml version="1.0" standalone="no"?>
<!DOCTYPE svg PUBLIC "-//W3C//DTD SVG 20010904//EN"
 "http://www.w3.org/TR/2001/REC-SVG-20010904/DTD/svg10.dtd">
<svg version="1.0" xmlns="http://www.w3.org/2000/svg"
 width="700.000000pt" height="700.000000pt" viewBox="0 0 700.000000 700.000000"
 preserveAspectRatio="xMidYMid meet">
<metadata>
Created by potrace 1.11, written by Peter Selinger 2001-2013
</metadata>
<g transform="translate(0.000000,700.000000) scale(0.100000,-0.100000)"
fill="#000000" stroke="none">
<path d="M984 6979 c-64 -24 -119 -77 -150 -143 l-24 -51 0 -2448 c0 -2254 1
-2451 16 -2480 30 -57 349 -529 441 -652 264 -353 604 -639 1018 -856 557
-293 1270 -398 1945 -288 938 153 1663 685 1956 1434 57 147 108 344 124 487
18 151 8 438 -20 598 -86 488 -289 947 -673 1519 -39 58 -186 266 -327 461
-467 648 -597 847 -795 1215 -69 129 -209 367 -256 437 -280 412 -625 649
-1083 742 -203 42 -312 46 -1241 45 -851 0 -882 -1 -931 -20z m2009 -184 c501
-66 867 -304 1059 -690 83 -165 118 -313 125 -530 4 -125 2 -180 -11 -250 -55
-300 -192 -524 -425 -699 -57 -42 -99 -82 -105 -97 -13 -39 1 -78 35 -97 263
-144 422 -300 533 -520 173 -344 169 -796 -9 -1158 -208 -424 -626 -685 -1175
-734 -68 -6 -493 -10 -1033 -10 -1023 0 -966 -4 -987 68 -8 26 -10 714 -8
2359 l3 2321 24 26 24 26 917 0 c768 0 935 -2 1033 -15z"/>
<path d="M1958 6014 c-17 -9 -31 -28 -38 -52 -8 -25 -10 -204 -8 -560 l3 -524
29 -25 29 -24 381 3 c350 4 387 6 457 25 290 81 449 285 449 578 0 329 -193
537 -543 584 -43 6 -225 11 -405 11 -269 -1 -332 -3 -354 -16z"/>
<path d="M1944 4037 l-29 -25 0 -586 0 -585 23 -23 23 -23 377 -3 c417 -4 519
4 648 47 105 35 159 68 240 143 71 67 130 172 155 278 18 78 16 261 -5 339
-59 221 -212 367 -451 433 -76 21 -104 22 -516 26 l-436 3 -29 -24z"/>
</g>
</svg>
